<svg width="123" height="48" viewBox="0 0 123 48" fill="none" xmlns="http://www.w3.org/2000/svg">
<path d="M37.1726 18.0177C38.2883 18.0177 39.254 18.2036 40.0697 18.5755C40.8974 18.9473 41.5331 19.4752 41.9768 20.1589C42.4208 20.8427 42.6428 21.6524 42.6428 22.588C42.6428 23.5117 42.4208 24.3214 41.9768 25.0171C41.5331 25.7009 40.8974 26.2287 40.0697 26.6007C39.254 26.9604 38.2883 27.1404 37.1726 27.1404H34.6355V30.6132H31.7207V18.0177H37.1726ZM37.0109 24.7652C37.8863 24.7652 38.5523 24.5793 39.008 24.2074C39.464 23.8235 39.6917 23.2838 39.6917 22.588C39.6917 21.8803 39.464 21.3405 39.008 20.9686C38.5523 20.5847 37.8863 20.3928 37.0109 20.3928H34.6355V24.7652H37.0109Z" fill="black"/>
<path d="M46.3081 22.2102C46.6438 21.7423 47.0938 21.3885 47.6575 21.1485C48.2332 20.9086 48.8929 20.7887 49.6366 20.7887V23.3797C49.3249 23.3557 49.1149 23.3437 49.0069 23.3437C48.2032 23.3437 47.5735 23.5717 47.1178 24.0275C46.6618 24.4713 46.4338 25.1431 46.4338 26.0427V30.6132H43.627V20.9326H46.3081V22.2102Z" fill="black"/>
<path d="M54.9236 30.7569C53.9042 30.7569 52.9865 30.5472 52.1708 30.1272C51.3671 29.6955 50.7374 29.1015 50.2814 28.3458C49.8257 27.5901 49.5977 26.7324 49.5977 25.7728C49.5977 24.8132 49.8257 23.9555 50.2814 23.1998C50.7374 22.4441 51.3671 21.8563 52.1708 21.4365C52.9865 21.0046 53.9042 20.7887 54.9236 20.7887C55.9433 20.7887 56.855 21.0046 57.6587 21.4365C58.4624 21.8563 59.0921 22.4441 59.5481 23.1998C60.0038 23.9555 60.2318 24.8132 60.2318 25.7728C60.2318 26.7324 60.0038 27.5901 59.5481 28.3458C59.0921 29.1015 58.4624 29.6955 57.6587 30.1272C56.855 30.5472 55.9433 30.7569 54.9236 30.7569ZM54.9236 28.4538C55.6436 28.4538 56.2313 28.2141 56.687 27.7341C57.155 27.2424 57.3887 26.5887 57.3887 25.7728C57.3887 24.9572 57.155 24.3094 56.687 23.8296C56.2313 23.3377 55.6436 23.0918 54.9236 23.0918C54.2039 23.0918 53.6102 23.3377 53.1425 23.8296C52.6745 24.3094 52.4405 24.9572 52.4405 25.7728C52.4405 26.5887 52.6745 27.2424 53.1425 27.7341C53.6102 28.2141 54.2039 28.4538 54.9236 28.4538Z" fill="black"/>
<path d="M72.958 18.0177V30.6132H70.565L64.285 22.9659V30.6132H61.4062V18.0177H63.8174L70.079 25.6649V18.0177H72.958Z" fill="black"/>
<path d="M78.7454 20.7887C80.2448 20.7887 81.3962 21.1485 82.1999 21.8683C83.0036 22.576 83.4056 23.6496 83.4056 25.0891V30.6132H80.7785V29.4075C80.2508 30.3072 79.2671 30.7569 77.8277 30.7569C77.084 30.7569 76.436 30.6312 75.8843 30.3792C75.3446 30.1272 74.9306 29.7795 74.6429 29.3355C74.3549 28.8918 74.2109 28.3878 74.2109 27.8241C74.2109 26.9244 74.5469 26.2167 75.2186 25.7009C75.9023 25.1851 76.952 24.9272 78.3674 24.9272H80.5985C80.5985 24.3154 80.4128 23.8476 80.0408 23.5237C79.6688 23.1878 79.1111 23.0199 78.3674 23.0199C77.8517 23.0199 77.3417 23.1038 76.838 23.2718C76.3463 23.4277 75.9263 23.6436 75.5783 23.9195L74.5709 21.9582C75.0986 21.5864 75.7283 21.2985 76.46 21.0946C77.2037 20.8907 77.9657 20.7887 78.7454 20.7887ZM78.5294 28.8678C79.0091 28.8678 79.4351 28.7598 79.8068 28.5438C80.1788 28.3158 80.4425 27.9861 80.5985 27.5541V26.5647H78.6734C77.5217 26.5647 76.946 26.9424 76.946 27.6981C76.946 28.0581 77.084 28.3458 77.3597 28.5618C77.6477 28.7658 78.0374 28.8678 78.5294 28.8678Z" fill="black"/>
<path d="M91.2895 30.1452C91.0138 30.3492 90.6718 30.5052 90.2641 30.6132C89.8681 30.7089 89.4484 30.7569 89.0044 30.7569C87.853 30.7569 86.9593 30.4632 86.3236 29.8755C85.6996 29.2875 85.3879 28.4238 85.3879 27.2844V23.3078H83.8945V21.1486H85.3879V18.7914H88.1947V21.1486H90.6058V23.3078H88.1947V27.2484C88.1947 27.6561 88.2967 27.9741 88.5007 28.2021C88.7167 28.4178 89.0164 28.5258 89.4004 28.5258C89.8441 28.5258 90.2221 28.4058 90.5338 28.1661L91.2895 30.1452Z" fill="black"/>
<path d="M101.719 20.9327V30.6132H99.0554V29.4615C98.6837 29.8812 98.2397 30.2052 97.724 30.4332C97.208 30.6492 96.6503 30.7569 96.0506 30.7569C94.7789 30.7569 93.7715 30.3912 93.0275 29.6595C92.2838 28.9278 91.9121 27.8421 91.9121 26.4027V20.9327H94.7189V25.9887C94.7189 27.5481 95.3729 28.3278 96.6803 28.3278C97.352 28.3278 97.892 28.1121 98.2997 27.6801C98.7074 27.2364 98.9114 26.5827 98.9114 25.7189V20.9327H101.719Z" fill="black"/>
<path d="M106.101 22.2102C106.437 21.7423 106.887 21.3885 107.45 21.1485C108.026 20.9086 108.686 20.7887 109.43 20.7887V23.3797C109.118 23.3557 108.908 23.3437 108.8 23.3437C107.996 23.3437 107.366 23.5717 106.911 24.0275C106.455 24.4713 106.227 25.1431 106.227 26.0427V30.6132H103.42V20.9326H106.101V22.2102Z" fill="black"/>
<path d="M119.593 25.809C119.593 25.8447 119.575 26.0967 119.539 26.5647H112.216C112.348 27.1644 112.659 27.6381 113.151 27.9861C113.643 28.3338 114.255 28.5078 114.987 28.5078C115.491 28.5078 115.934 28.4358 116.318 28.2918C116.714 28.1361 117.08 27.8961 117.416 27.5721L118.909 29.1915C117.998 30.2352 116.666 30.7569 114.915 30.7569C113.823 30.7569 112.857 30.5472 112.018 30.1272C111.178 29.6955 110.53 29.1015 110.074 28.3458C109.619 27.5901 109.391 26.7324 109.391 25.7728C109.391 24.8252 109.613 23.9735 110.056 23.2178C110.512 22.4501 111.13 21.8563 111.91 21.4365C112.701 21.0046 113.583 20.7887 114.555 20.7887C115.503 20.7887 116.36 20.9926 117.128 21.4005C117.896 21.8083 118.495 22.3961 118.927 23.1638C119.371 23.9195 119.593 24.8012 119.593 25.809ZM114.573 22.9119C113.937 22.9119 113.403 23.0918 112.971 23.4517C112.539 23.8116 112.276 24.3034 112.18 24.9272H116.948C116.852 24.3154 116.588 23.8296 116.156 23.4697C115.724 23.0978 115.197 22.9119 114.573 22.9119Z" fill="black"/>
<path fill-rule="evenodd" clip-rule="evenodd" d="M15.7359 11.0034C15.3082 10.756 14.7809 10.756 14.3532 11.0034C11.3154 12.7607 9.26658 16.0485 9.26658 19.8166C9.26658 20.3536 9.30822 20.8809 9.38838 21.3954C7.2972 20.6852 5.03295 20.9436 3.18354 22.0093C2.75544 22.256 2.49177 22.7126 2.49219 23.2067C2.49438 25.8133 3.84846 28.3537 6.27354 29.7538C7.46325 30.4408 8.7618 30.7672 10.0427 30.7678C9.8478 31.3201 9.74178 31.9141 9.74178 32.533C9.74178 35.4616 12.1158 37.8355 15.0443 37.8355C17.973 37.8355 20.3469 35.4616 20.3469 32.533C20.3469 31.9126 20.2404 31.3174 20.0448 30.7642C21.2493 30.7261 22.4625 30.3991 23.5797 29.7538C26.0049 28.3537 27.3588 25.8133 27.3609 23.2068C27.3615 22.7127 27.0978 22.2561 26.6697 22.0094C24.8931 20.9857 22.7337 20.7069 20.7129 21.316C20.7852 20.8267 20.8224 20.326 20.8224 19.8166C20.8224 16.0485 18.7737 12.7607 15.7359 11.0034ZM12.0279 19.8166C12.0279 17.3697 13.2127 15.1983 15.0445 13.8466C16.8764 15.1983 18.0612 17.3697 18.0612 19.8166C18.0612 22.2634 16.8764 24.4348 15.0445 25.7864C13.2127 24.4348 12.0279 22.2634 12.0279 19.8166ZM20.4897 24.4019C21.7647 23.6658 23.238 23.5802 24.525 24.046C24.285 25.3934 23.4741 26.6263 22.1991 27.3625C20.9241 28.0987 19.4508 28.1842 18.1638 27.7186C18.4038 26.371 19.2147 25.1381 20.4897 24.4019ZM5.3283 24.0459C6.61524 23.5801 8.08848 23.6657 9.36351 24.4018C10.6386 25.138 11.4493 26.371 11.6894 27.7183C10.4025 28.1842 8.92923 28.0987 7.6542 27.3625C6.37917 26.6263 5.56836 25.3933 5.3283 24.0459ZM12.5031 32.533C12.5031 31.1296 13.6408 29.9917 15.0443 29.9917C16.4478 29.9917 17.5857 31.1296 17.5857 32.533C17.5857 33.9364 16.4478 35.0743 15.0443 35.0743C13.6408 35.0743 12.5031 33.9364 12.5031 32.533Z" fill="black"/>
</svg>
