<svg width="20" height="21" viewBox="0 0 20 21" fill="none" xmlns="http://www.w3.org/2000/svg">
<path d="M5 2.16666L2.5 5.49999V17.1667C2.5 17.6087 2.67559 18.0326 2.98816 18.3452C3.30072 18.6577 3.72464 18.8333 4.16667 18.8333H15.8333C16.2754 18.8333 16.6993 18.6577 17.0118 18.3452C17.3244 18.0326 17.5 17.6087 17.5 17.1667V5.49999L15 2.16666H5Z" stroke="black" stroke-width="1.5" stroke-linecap="round" stroke-linejoin="round"/>
<path d="M2.5 5.5H17.5" stroke="black" stroke-width="1.5" stroke-linecap="round" stroke-linejoin="round"/>
<path d="M13.3333 8.83334C13.3333 9.7174 12.9821 10.5652 12.357 11.1904C11.7319 11.8155 10.884 12.1667 9.99996 12.1667C9.1159 12.1667 8.26806 11.8155 7.64294 11.1904C7.01782 10.5652 6.66663 9.7174 6.66663 8.83334" stroke="black" stroke-width="1.5" stroke-linecap="round" stroke-linejoin="round"/>
</svg>
